<?xml version="1.0" encoding="UTF-8" standalone="no"?>
<svg
   height="512"
   viewBox="0 0 512 512"
   width="512"
   version="1.1"
   id="svg8"
   sodipodi:docname="cadenas-ouvert-xx.svg"
   inkscape:version="1.1.2 (0a00cf5339, 2022-02-04)"
   xmlns:inkscape="http://www.inkscape.org/namespaces/inkscape"
   xmlns:sodipodi="http://sodipodi.sourceforge.net/DTD/sodipodi-0.dtd"
   xmlns="http://www.w3.org/2000/svg"
   xmlns:svg="http://www.w3.org/2000/svg">
  <defs
     id="defs12" />
  <sodipodi:namedview
     id="namedview10"
     pagecolor="#ffffff"
     bordercolor="#666666"
     borderopacity="1.0"
     inkscape:pageshadow="2"
     inkscape:pageopacity="0.0"
     inkscape:pagecheckerboard="0"
     showgrid="false"
     inkscape:lockguides="false"
     inkscape:zoom="0.82421875"
     inkscape:cx="171.67773"
     inkscape:cy="231.12796"
     inkscape:current-layer="svg8" />
  <path
     d="M 348,0 C 271.456,0.094 209.427,62.122 209.333,138.667 V 224 c 0,5.891 4.776,10.667 10.667,10.667 h 42.667 c 5.891,0 10.667,-4.776 10.667,-10.667 V 138.667 C 273.333,97.429 306.763,64 348,64 c 41.237,0 74.667,33.429 74.667,74.667 V 224 c 0,5.891 4.776,10.667 10.667,10.667 H 476 c 5.891,0 10.667,-4.776 10.667,-10.667 V 138.667 C 486.573,62.122 424.544,0.094 348,0 Z"
     fill="#455a64"
     id="path2" />
  <path
     d="m 82,213.333 h 256 c 29.455,0 53.333,23.878 53.333,53.333 v 192 C 391.333,488.122 367.455,512 338,512 H 82 C 52.545,512 28.667,488.122 28.667,458.667 v -192 c 0,-29.456 23.878,-53.334 53.333,-53.334 z"
     fill="#ffc107"
     id="path4" />
  <path
     d="m 263.333,330.667 c 0.124,-29.455 -23.653,-53.434 -53.108,-53.558 -29.455,-0.124 -53.434,23.653 -53.558,53.108 -0.086,20.36 11.427,38.992 29.674,48.023 l -8.235,57.6 c -0.825,5.833 3.235,11.23 9.068,12.055 0.494,0.07 0.993,0.105 1.492,0.105 h 42.667 c 5.891,0.06 10.715,-4.667 10.774,-10.558 0.005,-0.543 -0.03,-1.086 -0.108,-1.623 l -8.235,-57.6 c 18.024,-9.02 29.452,-27.399 29.569,-47.552 z"
     fill="#455a64"
     id="path6" />
</svg>
