<svg xmlns="http://www.w3.org/2000/svg" viewBox="0 0 64 64" width="64" height="64">
  <circle cx="32" cy="32" r="22.9" fill="#fff"/>
  <path d="M32 58C17.6 58 6 46.4 6 32S17.6 6 32 6s26 11.6 26 26-11.6 26-26 26zm-6-6.1c-2.6-5.4-4.1-11.3-4.4-17.3H11.4c1 8.2 6.8 15 14.6 17.3zm.9-17.3c.4 6.3 2.2 12.3 5.1 17.6 3-5.4 4.7-11.4 5.1-17.6H26.9zm25.7 0H42.3c-.3 6-1.8 11.9-4.4 17.3 7.9-2.3 13.7-9.1 14.7-17.3zm-41.2-5.2h10.3c.3-6 1.8-11.9 4.4-17.3-7.9 2.3-13.7 9.1-14.7 17.3zm15.5 0h10.2c-.4-6.2-2.1-12.2-5.1-17.6-3 5.4-4.7 11.4-5.1 17.6zM38 12.1c2.6 5.4 4.1 11.3 4.4 17.3h10.3c-1.1-8.2-6.9-15-14.7-17.3z" fill="#666"/>
</svg>