<svg xmlns="http://www.w3.org/2000/svg" viewBox="0 0 64 64" width="64" height="64">
  <circle fill="#fff" cx="25.4" cy="39.6" r="13.4" />
  <circle fill="#fff" cx="38.7" cy="24.9" r="13.4" />
  <path fill="#666" d="M34.7 22.1l3.6 3.6c7 7 7 18.2 0 25.2l-.9.9c-7 7-18.2 7-25.2 0s-7-18.2 0-25.2l3.6 3.6c-5 4.9-5 13-.1 18s13 5 18 .1l.1-.1.9-.9c5-5 5-13 0-18l-3.6-3.6 3.6-3.6zm17.1 15.3l-3.6-3.6c5-4.9 5-13 .1-18s-13-5-18-.1l-.1.1-.9.9c-5 5-5 13 0 18l3.6 3.6-3.6 3.6-3.6-3.6c-7-7-7-18.2 0-25.2l.9-.9c7-7 18.2-7 25.2 0s6.9 18.2 0 25.2z" />
</svg>